M48
; DRILL file {KiCad 7.0.6-7.0.6~ubuntu20.04.1} date 2023 9-р сар 11, Да 17:25:37
; FORMAT={-:-/ absolute / inch / decimal}
; #@! TF.CreationDate,2023-09-11T17:25:37+08:00
; #@! TF.GenerationSoftware,Kicad,Pcbnew,7.0.6-7.0.6~ubuntu20.04.1
; #@! TF.FileFunction,Plated,1,2,PTH
FMAT,2
INCH
; #@! TA.AperFunction,Plated,PTH,ViaDrill
T1C0.0157
; #@! TA.AperFunction,Plated,PTH,ComponentDrill
T2C0.0236
; #@! TA.AperFunction,Plated,PTH,ComponentDrill
T3C0.0394
; #@! TA.AperFunction,Plated,PTH,ComponentDrill
T4C0.0591
%
G90
G05
T1
X4.535Y-2.505
X4.535Y-3.305
X4.645Y-3.825
X5.625Y-3.885
X6.89Y-3.9
X7.03Y-1.7
X7.115Y-4.1
X7.13Y-4.25
X7.1969Y-2.2047
X7.255Y-3.155
X7.2835Y-2.0315
X7.2835Y-2.1654
X7.32Y-2.695
X7.32Y-2.75
X7.32Y-3.155
X7.36Y-2.252
X7.3937Y-2.1654
X7.44Y-3.0
X7.4567Y-2.0236
X7.49Y-3.2
X7.49Y-3.26
X7.49Y-3.33
X7.49Y-3.39
X7.52Y-4.075
X7.525Y-3.675
X7.5624Y-2.785
X7.5624Y-3.065
X7.565Y-3.635
X7.6Y-1.78
X7.6Y-1.91
X7.61Y-2.7023
X7.6142Y-1.57
X7.615Y-4.08
X7.625Y-3.425
X7.645Y-3.25
X7.66Y-3.805
X7.6729Y-3.4079
X7.685Y-3.27
X7.69Y-2.11
X7.7Y-3.77
X7.7Y-4.08
X7.775Y-4.08
X7.83Y-2.54
X7.8348Y-2.5898
X7.84Y-1.86
X7.855Y-4.08
X7.88Y-2.61
X7.9014Y-2.6421
X7.9228Y-2.6742
X7.94Y-1.68
X7.985Y-3.3
X8.01Y-2.54
X8.025Y-3.33
X8.06Y-1.69
X8.06Y-2.64
X8.06Y-2.68
X8.125Y-2.78
X8.155Y-3.325
X8.155Y-3.42
X8.21Y-1.8
X8.22Y-2.54
X8.255Y-1.835
X8.28Y-1.77
X8.3268Y-1.8632
X8.3691Y-1.9006
X8.4075Y-1.8632
X8.4553Y-1.77
X8.5Y-2.78
X8.5Y-2.88
X8.592Y-1.862
X8.594Y-1.992
T3
X7.18Y-2.5
X7.18Y-2.6
X7.18Y-2.7
X7.18Y-2.8
X7.18Y-2.9
X7.18Y-4.5
X7.1929Y-1.8425
X7.28Y-4.5
X7.2913Y-1.8425
X7.38Y-4.5
X7.3898Y-1.8425
X7.48Y-4.5
X7.58Y-4.5
X7.68Y-4.5
X7.78Y-4.5
X7.88Y-4.5
X7.91Y-2.2403
X7.91Y-2.3403
X7.91Y-2.4403
X7.98Y-4.5
X8.01Y-2.2403
X8.01Y-2.3403
X8.01Y-2.4403
X8.08Y-4.5
X8.18Y-4.5
X8.28Y-4.5
X8.38Y-4.5
X8.48Y-4.5
X8.58Y-4.5
X8.68Y-2.24
X8.68Y-2.34
X8.68Y-2.44
X8.68Y-2.54
X8.68Y-2.78
X8.68Y-2.88
X8.68Y-2.98
X8.68Y-3.08
X8.68Y-3.18
X8.68Y-3.28
X8.68Y-3.38
X8.68Y-3.48
X8.68Y-3.58
X8.68Y-3.68
X8.68Y-3.78
X8.68Y-3.88
X8.68Y-3.98
X8.68Y-4.08
X8.68Y-4.18
X8.68Y-4.28
X8.68Y-4.5
T4
X4.825Y-1.875
X4.825Y-2.625
X4.825Y-3.375
X4.825Y-4.125
X5.075Y-1.775
X5.075Y-2.525
X5.075Y-3.275
X5.075Y-4.025
X5.575Y-1.875
X5.575Y-2.625
X5.575Y-3.375
X5.575Y-4.125
X5.825Y-1.775
X5.825Y-2.525
X5.825Y-3.275
X5.825Y-4.025
X6.325Y-1.875
X6.325Y-2.625
X6.325Y-3.375
X6.325Y-4.125
X6.575Y-1.775
X6.575Y-2.525
X6.575Y-3.275
X6.575Y-4.025
T2
G00X8.1909Y-1.5236
M15
G01X8.1909Y-1.4921
M16
G05
G00X8.1909Y-1.6949
M15
G01X8.1909Y-1.6516
M16
G05
G00X8.5311Y-1.5236
M15
G01X8.5311Y-1.4921
M16
G05
G00X8.5311Y-1.6949
M15
G01X8.5311Y-1.6516
M16
G05
T0
M30
