M48
; DRILL file {KiCad 7.0.6-7.0.6~ubuntu20.04.1} date 2023 9-р сар 11, Да 17:25:37
; FORMAT={-:-/ absolute / inch / decimal}
; #@! TF.CreationDate,2023-09-11T17:25:37+08:00
; #@! TF.GenerationSoftware,Kicad,Pcbnew,7.0.6-7.0.6~ubuntu20.04.1
; #@! TF.FileFunction,NonPlated,1,2,NPTH
FMAT,2
INCH
; #@! TA.AperFunction,NonPlated,NPTH,ComponentDrill
T1C0.0256
; #@! TA.AperFunction,NonPlated,NPTH,ComponentDrill
T2C0.0669
; #@! TA.AperFunction,NonPlated,NPTH,ComponentDrill
T3C0.1063
; #@! TA.AperFunction,NonPlated,NPTH,ComponentDrill
T4C0.1575
%
G90
G05
T1
X8.2472Y-1.6528
X8.4748Y-1.6528
T2
X4.775Y-1.975
X4.775Y-2.725
X4.775Y-3.475
X4.775Y-4.225
X5.175Y-1.975
X5.175Y-2.725
X5.175Y-3.475
X5.175Y-4.225
X5.525Y-1.975
X5.525Y-2.725
X5.525Y-3.475
X5.525Y-4.225
X5.925Y-1.975
X5.925Y-2.725
X5.925Y-3.475
X5.925Y-4.225
X6.275Y-1.975
X6.275Y-2.725
X6.275Y-3.475
X6.275Y-4.225
X6.675Y-1.975
X6.675Y-2.725
X6.675Y-3.475
X6.675Y-4.225
T3
X4.535Y-4.65
X4.555Y-1.565
X8.85Y-1.55
X8.85Y-4.645
T4
X4.975Y-1.975
X4.975Y-2.725
X4.975Y-3.475
X4.975Y-4.225
X5.725Y-1.975
X5.725Y-2.725
X5.725Y-3.475
X5.725Y-4.225
X6.475Y-1.975
X6.475Y-2.725
X6.475Y-3.475
X6.475Y-4.225
T0
M30
