%TF.GenerationSoftware,KiCad,Pcbnew,7.0.6-7.0.6~ubuntu20.04.1*%
%TF.CreationDate,2023-09-11T17:25:35+08:00*%
%TF.ProjectId,pro72,70726f37-322e-46b6-9963-61645f706362,rev?*%
%TF.SameCoordinates,Original*%
%TF.FileFunction,Soldermask,Top*%
%TF.FilePolarity,Negative*%
%FSLAX46Y46*%
G04 Gerber Fmt 4.6, Leading zero omitted, Abs format (unit mm)*
G04 Created by KiCad (PCBNEW 7.0.6-7.0.6~ubuntu20.04.1) date 2023-09-11 17:25:35*
%MOMM*%
%LPD*%
G01*
G04 APERTURE LIST*
G04 Aperture macros list*
%AMRoundRect*
0 Rectangle with rounded corners*
0 $1 Rounding radius*
0 $2 $3 $4 $5 $6 $7 $8 $9 X,Y pos of 4 corners*
0 Add a 4 corners polygon primitive as box body*
4,1,4,$2,$3,$4,$5,$6,$7,$8,$9,$2,$3,0*
0 Add four circle primitives for the rounded corners*
1,1,$1+$1,$2,$3*
1,1,$1+$1,$4,$5*
1,1,$1+$1,$6,$7*
1,1,$1+$1,$8,$9*
0 Add four rect primitives between the rounded corners*
20,1,$1+$1,$2,$3,$4,$5,0*
20,1,$1+$1,$4,$5,$6,$7,0*
20,1,$1+$1,$6,$7,$8,$9,0*
20,1,$1+$1,$8,$9,$2,$3,0*%
G04 Aperture macros list end*
%ADD10RoundRect,0.135000X0.135000X0.185000X-0.135000X0.185000X-0.135000X-0.185000X0.135000X-0.185000X0*%
%ADD11C,1.700000*%
%ADD12C,4.000000*%
%ADD13C,2.200000*%
%ADD14RoundRect,0.140000X-0.140000X-0.170000X0.140000X-0.170000X0.140000X0.170000X-0.140000X0.170000X0*%
%ADD15R,1.700000X1.700000*%
%ADD16O,1.700000X1.700000*%
%ADD17C,2.700000*%
%ADD18RoundRect,0.135000X-0.185000X0.135000X-0.185000X-0.135000X0.185000X-0.135000X0.185000X0.135000X0*%
%ADD19RoundRect,0.140000X-0.170000X0.140000X-0.170000X-0.140000X0.170000X-0.140000X0.170000X0.140000X0*%
%ADD20C,2.000000*%
%ADD21RoundRect,0.135000X0.185000X-0.135000X0.185000X0.135000X-0.185000X0.135000X-0.185000X-0.135000X0*%
%ADD22RoundRect,0.100000X0.130000X0.100000X-0.130000X0.100000X-0.130000X-0.100000X0.130000X-0.100000X0*%
%ADD23RoundRect,0.150000X-0.587500X-0.150000X0.587500X-0.150000X0.587500X0.150000X-0.587500X0.150000X0*%
%ADD24RoundRect,0.140000X0.170000X-0.140000X0.170000X0.140000X-0.170000X0.140000X-0.170000X-0.140000X0*%
%ADD25C,0.650000*%
%ADD26R,0.600000X1.240000*%
%ADD27R,0.300000X1.240000*%
%ADD28O,1.000000X2.100000*%
%ADD29O,1.000000X1.800000*%
%ADD30R,1.800000X1.100000*%
%ADD31RoundRect,0.075000X-0.662500X-0.075000X0.662500X-0.075000X0.662500X0.075000X-0.662500X0.075000X0*%
%ADD32RoundRect,0.075000X-0.075000X-0.662500X0.075000X-0.662500X0.075000X0.662500X-0.075000X0.662500X0*%
%ADD33RoundRect,0.140000X0.140000X0.170000X-0.140000X0.170000X-0.140000X-0.170000X0.140000X-0.170000X0*%
G04 APERTURE END LIST*
D10*
%TO.C,R10*%
X183780000Y-53800000D03*
X182760000Y-53800000D03*
%TD*%
D11*
%TO.C,SWK12*%
X159385000Y-107315000D03*
D12*
X164465000Y-107315000D03*
D11*
X169545000Y-107315000D03*
D13*
X167005000Y-102235000D03*
X160655000Y-104775000D03*
%TD*%
D14*
%TO.C,C12*%
X186820000Y-50600000D03*
X187780000Y-50600000D03*
%TD*%
D11*
%TO.C,SWK8*%
X140335000Y-88265000D03*
D12*
X145415000Y-88265000D03*
D11*
X150495000Y-88265000D03*
D13*
X147955000Y-83185000D03*
X141605000Y-85725000D03*
%TD*%
D11*
%TO.C,SWKK10*%
X121285000Y-107315000D03*
D12*
X126365000Y-107315000D03*
D11*
X131445000Y-107315000D03*
D13*
X128905000Y-102235000D03*
X122555000Y-104775000D03*
%TD*%
D15*
%TO.C,J5*%
X220472000Y-108712000D03*
D16*
X220472000Y-106172000D03*
X220472000Y-103632000D03*
X220472000Y-101092000D03*
X220472000Y-98552000D03*
X220472000Y-96012000D03*
X220472000Y-93472000D03*
X220472000Y-90932000D03*
X220472000Y-88392000D03*
X220472000Y-85852000D03*
X220472000Y-83312000D03*
X220472000Y-80772000D03*
X220472000Y-78232000D03*
X220472000Y-75692000D03*
X220472000Y-73152000D03*
X220472000Y-70612000D03*
%TD*%
D17*
%TO.C,H4*%
X115189000Y-118110000D03*
%TD*%
D11*
%TO.C,SWK2*%
X140335000Y-50165000D03*
D12*
X145415000Y-50165000D03*
D11*
X150495000Y-50165000D03*
D13*
X147955000Y-45085000D03*
X141605000Y-47625000D03*
%TD*%
D18*
%TO.C,R3*%
X206248000Y-59436000D03*
X206248000Y-60456000D03*
%TD*%
D19*
%TO.C,C3*%
X219456000Y-45240000D03*
X219456000Y-46200000D03*
%TD*%
D20*
%TO.C,SW1*%
X182700000Y-46800000D03*
X185200000Y-46800000D03*
X187700000Y-46800000D03*
%TD*%
D15*
%TO.C,J1*%
X200914000Y-56904000D03*
D16*
X203454000Y-56904000D03*
X200914000Y-59444000D03*
X203454000Y-59444000D03*
X200914000Y-61984000D03*
X203454000Y-61984000D03*
%TD*%
D17*
%TO.C,H3*%
X224790000Y-117983000D03*
%TD*%
D14*
%TO.C,C5*%
X215265000Y-52451000D03*
X216225000Y-52451000D03*
%TD*%
D21*
%TO.C,R5*%
X196753000Y-43946000D03*
X196753000Y-42926000D03*
%TD*%
D11*
%TO.C,SWK6*%
X159385000Y-69215000D03*
D12*
X164465000Y-69215000D03*
D11*
X169545000Y-69215000D03*
D13*
X167005000Y-64135000D03*
X160655000Y-66675000D03*
%TD*%
D22*
%TO.C,D14*%
X196955500Y-39370000D03*
X196315500Y-39370000D03*
%TD*%
D11*
%TO.C,SWK5*%
X140335000Y-69215000D03*
D12*
X145415000Y-69215000D03*
D11*
X150495000Y-69215000D03*
D13*
X147955000Y-64135000D03*
X141605000Y-66675000D03*
%TD*%
D23*
%TO.C,U2*%
X210566000Y-49662000D03*
X210566000Y-51562000D03*
X212441000Y-50612000D03*
%TD*%
D10*
%TO.C,R9*%
X187800000Y-53600000D03*
X186780000Y-53600000D03*
%TD*%
D22*
%TO.C,D13*%
X200472000Y-39370000D03*
X199832000Y-39370000D03*
%TD*%
D14*
%TO.C,C9*%
X195382000Y-69342000D03*
X196342000Y-69342000D03*
%TD*%
D24*
%TO.C,C6*%
X188976000Y-78232000D03*
X188976000Y-77272000D03*
%TD*%
%TO.C,C10*%
X196596000Y-50742000D03*
X196596000Y-49782000D03*
%TD*%
D18*
%TO.C,R12*%
X219202000Y-38862000D03*
X219202000Y-39882000D03*
%TD*%
D11*
%TO.C,SWK3*%
X159385000Y-50165000D03*
D12*
X164465000Y-50165000D03*
D11*
X169545000Y-50165000D03*
D13*
X167005000Y-45085000D03*
X160655000Y-47625000D03*
%TD*%
D18*
%TO.C,R1*%
X207518000Y-50546000D03*
X207518000Y-51566000D03*
%TD*%
%TO.C,R7*%
X204724000Y-44196000D03*
X204724000Y-45216000D03*
%TD*%
D25*
%TO.C,J2*%
X215260000Y-41980000D03*
X209480000Y-41980000D03*
D26*
X215570000Y-43100000D03*
X214770000Y-43100000D03*
D27*
X213620000Y-43100000D03*
X212620000Y-43100000D03*
X212120000Y-43100000D03*
X211120000Y-43100000D03*
D26*
X209970000Y-43100000D03*
X209170000Y-43100000D03*
X209170000Y-43100000D03*
X209970000Y-43100000D03*
D27*
X210620000Y-43100000D03*
X211620000Y-43100000D03*
X213120000Y-43100000D03*
X214120000Y-43100000D03*
D26*
X214770000Y-43100000D03*
X215570000Y-43100000D03*
D28*
X216690000Y-42500000D03*
D29*
X216690000Y-38300000D03*
D28*
X208050000Y-42500000D03*
D29*
X208050000Y-38300000D03*
%TD*%
D11*
%TO.C,SWK11*%
X140335000Y-107315000D03*
D12*
X145415000Y-107315000D03*
D11*
X150495000Y-107315000D03*
D13*
X147955000Y-102235000D03*
X141605000Y-104775000D03*
%TD*%
D11*
%TO.C,SWK7*%
X121285000Y-88265000D03*
D12*
X126365000Y-88265000D03*
D11*
X131445000Y-88265000D03*
D13*
X128905000Y-83185000D03*
X122555000Y-85725000D03*
%TD*%
D11*
%TO.C,SWK1*%
X121285000Y-50165000D03*
D12*
X126365000Y-50165000D03*
D11*
X131445000Y-50165000D03*
D13*
X128905000Y-45085000D03*
X122555000Y-47625000D03*
%TD*%
D15*
%TO.C,J3*%
X220472000Y-56896000D03*
D16*
X220472000Y-59436000D03*
X220472000Y-61976000D03*
X220472000Y-64516000D03*
%TD*%
D21*
%TO.C,R8*%
X207518000Y-48518000D03*
X207518000Y-47498000D03*
%TD*%
%TO.C,R4*%
X199898000Y-43942000D03*
X199898000Y-42922000D03*
%TD*%
D19*
%TO.C,C8*%
X207645000Y-72136000D03*
X207645000Y-73096000D03*
%TD*%
%TO.C,C2*%
X221742000Y-45240000D03*
X221742000Y-46200000D03*
%TD*%
D11*
%TO.C,SWK9*%
X159385000Y-88265000D03*
D12*
X164465000Y-88265000D03*
D11*
X169545000Y-88265000D03*
D13*
X167005000Y-83185000D03*
X160655000Y-85725000D03*
%TD*%
D30*
%TO.C,SW2*%
X199084000Y-48950000D03*
X205284000Y-48950000D03*
X199084000Y-52650000D03*
X205284000Y-52650000D03*
%TD*%
D31*
%TO.C,U1*%
X195989500Y-72561000D03*
X195989500Y-73061000D03*
X195989500Y-73561000D03*
X195989500Y-74061000D03*
X195989500Y-74561000D03*
X195989500Y-75061000D03*
X195989500Y-75561000D03*
X195989500Y-76061000D03*
X195989500Y-76561000D03*
X195989500Y-77061000D03*
X195989500Y-77561000D03*
X195989500Y-78061000D03*
D32*
X197402000Y-79473500D03*
X197902000Y-79473500D03*
X198402000Y-79473500D03*
X198902000Y-79473500D03*
X199402000Y-79473500D03*
X199902000Y-79473500D03*
X200402000Y-79473500D03*
X200902000Y-79473500D03*
X201402000Y-79473500D03*
X201902000Y-79473500D03*
X202402000Y-79473500D03*
X202902000Y-79473500D03*
D31*
X204314500Y-78061000D03*
X204314500Y-77561000D03*
X204314500Y-77061000D03*
X204314500Y-76561000D03*
X204314500Y-76061000D03*
X204314500Y-75561000D03*
X204314500Y-75061000D03*
X204314500Y-74561000D03*
X204314500Y-74061000D03*
X204314500Y-73561000D03*
X204314500Y-73061000D03*
X204314500Y-72561000D03*
D32*
X202902000Y-71148500D03*
X202402000Y-71148500D03*
X201902000Y-71148500D03*
X201402000Y-71148500D03*
X200902000Y-71148500D03*
X200402000Y-71148500D03*
X199902000Y-71148500D03*
X199402000Y-71148500D03*
X198902000Y-71148500D03*
X198402000Y-71148500D03*
X197902000Y-71148500D03*
X197402000Y-71148500D03*
%TD*%
D17*
%TO.C,H1*%
X115697000Y-39751000D03*
%TD*%
D14*
%TO.C,C4*%
X215265000Y-50165000D03*
X216225000Y-50165000D03*
%TD*%
D17*
%TO.C,H2*%
X224790000Y-39370000D03*
%TD*%
D14*
%TO.C,C13*%
X182690000Y-50600000D03*
X183650000Y-50600000D03*
%TD*%
D15*
%TO.C,J4*%
X182372000Y-114300000D03*
D16*
X184912000Y-114300000D03*
X187452000Y-114300000D03*
X189992000Y-114300000D03*
X192532000Y-114300000D03*
X195072000Y-114300000D03*
X197612000Y-114300000D03*
X200152000Y-114300000D03*
X202692000Y-114300000D03*
X205232000Y-114300000D03*
X207772000Y-114300000D03*
X210312000Y-114300000D03*
X212852000Y-114300000D03*
X215392000Y-114300000D03*
X217932000Y-114300000D03*
X220472000Y-114300000D03*
%TD*%
D15*
%TO.C,J6*%
X182372000Y-63500000D03*
D16*
X182372000Y-66040000D03*
X182372000Y-68580000D03*
X182372000Y-71120000D03*
X182372000Y-73660000D03*
%TD*%
D18*
%TO.C,R6*%
X202184000Y-44196000D03*
X202184000Y-45216000D03*
%TD*%
D33*
%TO.C,C7*%
X203835000Y-82296000D03*
X202875000Y-82296000D03*
%TD*%
D21*
%TO.C,R2*%
X198120000Y-60464000D03*
X198120000Y-59444000D03*
%TD*%
D11*
%TO.C,SWK4*%
X121285000Y-69215000D03*
D12*
X126365000Y-69215000D03*
D11*
X131445000Y-69215000D03*
D13*
X128905000Y-64135000D03*
X122555000Y-66675000D03*
%TD*%
D21*
%TO.C,R11*%
X204470000Y-40640000D03*
X204470000Y-39620000D03*
%TD*%
M02*
