%TF.GenerationSoftware,KiCad,Pcbnew,7.0.6-7.0.6~ubuntu20.04.1*%
%TF.CreationDate,2023-09-11T17:25:35+08:00*%
%TF.ProjectId,pro72,70726f37-322e-46b6-9963-61645f706362,rev?*%
%TF.SameCoordinates,Original*%
%TF.FileFunction,Copper,L2,Bot*%
%TF.FilePolarity,Positive*%
%FSLAX46Y46*%
G04 Gerber Fmt 4.6, Leading zero omitted, Abs format (unit mm)*
G04 Created by KiCad (PCBNEW 7.0.6-7.0.6~ubuntu20.04.1) date 2023-09-11 17:25:35*
%MOMM*%
%LPD*%
G01*
G04 APERTURE LIST*
G04 Aperture macros list*
%AMRoundRect*
0 Rectangle with rounded corners*
0 $1 Rounding radius*
0 $2 $3 $4 $5 $6 $7 $8 $9 X,Y pos of 4 corners*
0 Add a 4 corners polygon primitive as box body*
4,1,4,$2,$3,$4,$5,$6,$7,$8,$9,$2,$3,0*
0 Add four circle primitives for the rounded corners*
1,1,$1+$1,$2,$3*
1,1,$1+$1,$4,$5*
1,1,$1+$1,$6,$7*
1,1,$1+$1,$8,$9*
0 Add four rect primitives between the rounded corners*
20,1,$1+$1,$2,$3,$4,$5,0*
20,1,$1+$1,$4,$5,$6,$7,0*
20,1,$1+$1,$6,$7,$8,$9,0*
20,1,$1+$1,$8,$9,$2,$3,0*%
G04 Aperture macros list end*
%TA.AperFunction,ComponentPad*%
%ADD10C,2.200000*%
%TD*%
%TA.AperFunction,ComponentPad*%
%ADD11R,1.700000X1.700000*%
%TD*%
%TA.AperFunction,ComponentPad*%
%ADD12O,1.700000X1.700000*%
%TD*%
%TA.AperFunction,ComponentPad*%
%ADD13C,2.000000*%
%TD*%
%TA.AperFunction,ComponentPad*%
%ADD14O,1.000000X2.100000*%
%TD*%
%TA.AperFunction,ComponentPad*%
%ADD15O,1.000000X1.800000*%
%TD*%
%TA.AperFunction,SMDPad,CuDef*%
%ADD16RoundRect,0.112500X0.112500X-0.187500X0.112500X0.187500X-0.112500X0.187500X-0.112500X-0.187500X0*%
%TD*%
%TA.AperFunction,ViaPad*%
%ADD17C,0.800000*%
%TD*%
%TA.AperFunction,Conductor*%
%ADD18C,0.250000*%
%TD*%
%TA.AperFunction,Conductor*%
%ADD19C,0.200000*%
%TD*%
G04 APERTURE END LIST*
D10*
%TO.P,SWK12,1,1*%
%TO.N,COL2*%
X167005000Y-102235000D03*
%TO.P,SWK12,2,2*%
%TO.N,Net-(D12-A)*%
X160655000Y-104775000D03*
%TD*%
%TO.P,SWK8,1,1*%
%TO.N,COL1*%
X147955000Y-83185000D03*
%TO.P,SWK8,2,2*%
%TO.N,Net-(D8-A)*%
X141605000Y-85725000D03*
%TD*%
%TO.P,SWKK10,1,1*%
%TO.N,COL0*%
X128905000Y-102235000D03*
%TO.P,SWKK10,2,2*%
%TO.N,Net-(D10-A)*%
X122555000Y-104775000D03*
%TD*%
D11*
%TO.P,J5,1,Pin_1*%
%TO.N,ROW0*%
X220472000Y-108712000D03*
D12*
%TO.P,J5,2,Pin_2*%
%TO.N,ROW1*%
X220472000Y-106172000D03*
%TO.P,J5,3,Pin_3*%
%TO.N,ROW2*%
X220472000Y-103632000D03*
%TO.P,J5,4,Pin_4*%
%TO.N,ROW3*%
X220472000Y-101092000D03*
%TO.P,J5,5,Pin_5*%
%TO.N,COL0*%
X220472000Y-98552000D03*
%TO.P,J5,6,Pin_6*%
%TO.N,COL1*%
X220472000Y-96012000D03*
%TO.P,J5,7,Pin_7*%
%TO.N,COL2*%
X220472000Y-93472000D03*
%TO.P,J5,8,Pin_8*%
%TO.N,/pa7*%
X220472000Y-90932000D03*
%TO.P,J5,9,Pin_9*%
%TO.N,/pa8*%
X220472000Y-88392000D03*
%TO.P,J5,10,Pin_10*%
%TO.N,/pa9*%
X220472000Y-85852000D03*
%TO.P,J5,11,Pin_11*%
%TO.N,/pa10*%
X220472000Y-83312000D03*
%TO.P,J5,12,Pin_12*%
%TO.N,USB-D+*%
X220472000Y-80772000D03*
%TO.P,J5,13,Pin_13*%
%TO.N,USB-D-*%
X220472000Y-78232000D03*
%TO.P,J5,14,Pin_14*%
%TO.N,/pa13*%
X220472000Y-75692000D03*
%TO.P,J5,15,Pin_15*%
%TO.N,usart2_tx*%
X220472000Y-73152000D03*
%TO.P,J5,16,Pin_16*%
%TO.N,usart2_rx*%
X220472000Y-70612000D03*
%TD*%
D10*
%TO.P,SWK2,1,1*%
%TO.N,COL1*%
X147955000Y-45085000D03*
%TO.P,SWK2,2,2*%
%TO.N,Net-(D2-A)*%
X141605000Y-47625000D03*
%TD*%
D13*
%TO.P,SW1,1*%
%TO.N,N/C*%
X182700000Y-46800000D03*
%TO.P,SW1,2*%
X185200000Y-46800000D03*
%TO.P,SW1,3*%
X187700000Y-46800000D03*
%TD*%
D11*
%TO.P,J1,1,Pin_1*%
%TO.N,+3V3*%
X200914000Y-56904000D03*
D12*
%TO.P,J1,2,Pin_2*%
X203454000Y-56904000D03*
%TO.P,J1,3,Pin_3*%
%TO.N,Net-(J1-Pin_3)*%
X200914000Y-59444000D03*
%TO.P,J1,4,Pin_4*%
%TO.N,Net-(J1-Pin_4)*%
X203454000Y-59444000D03*
%TO.P,J1,5,Pin_5*%
%TO.N,GND*%
X200914000Y-61984000D03*
%TO.P,J1,6,Pin_6*%
X203454000Y-61984000D03*
%TD*%
D10*
%TO.P,SWK6,1,1*%
%TO.N,COL2*%
X167005000Y-64135000D03*
%TO.P,SWK6,2,2*%
%TO.N,Net-(D6-A)*%
X160655000Y-66675000D03*
%TD*%
%TO.P,SWK5,1,1*%
%TO.N,COL1*%
X147955000Y-64135000D03*
%TO.P,SWK5,2,2*%
%TO.N,Net-(D5-A)*%
X141605000Y-66675000D03*
%TD*%
%TO.P,SWK3,1,1*%
%TO.N,COL2*%
X167005000Y-45085000D03*
%TO.P,SWK3,2,2*%
%TO.N,Net-(D3-A)*%
X160655000Y-47625000D03*
%TD*%
D14*
%TO.P,J2,S1,SHIELD*%
%TO.N,GND*%
X216690000Y-42500000D03*
D15*
X216690000Y-38300000D03*
D14*
X208050000Y-42500000D03*
D15*
X208050000Y-38300000D03*
%TD*%
D10*
%TO.P,SWK11,1,1*%
%TO.N,COL1*%
X147955000Y-102235000D03*
%TO.P,SWK11,2,2*%
%TO.N,Net-(D11-A)*%
X141605000Y-104775000D03*
%TD*%
%TO.P,SWK7,1,1*%
%TO.N,COL0*%
X128905000Y-83185000D03*
%TO.P,SWK7,2,2*%
%TO.N,Net-(D7-A)*%
X122555000Y-85725000D03*
%TD*%
%TO.P,SWK1,1,1*%
%TO.N,COL0*%
X128905000Y-45085000D03*
%TO.P,SWK1,2,2*%
%TO.N,Net-(D1-A)*%
X122555000Y-47625000D03*
%TD*%
D11*
%TO.P,J3,1,Pin_1*%
%TO.N,+3V3*%
X220472000Y-56896000D03*
D12*
%TO.P,J3,2,Pin_2*%
%TO.N,usart2_tx*%
X220472000Y-59436000D03*
%TO.P,J3,3,Pin_3*%
%TO.N,usart2_rx*%
X220472000Y-61976000D03*
%TO.P,J3,4,Pin_4*%
%TO.N,GND*%
X220472000Y-64516000D03*
%TD*%
D10*
%TO.P,SWK9,1,1*%
%TO.N,COL2*%
X167005000Y-83185000D03*
%TO.P,SWK9,2,2*%
%TO.N,Net-(D9-A)*%
X160655000Y-85725000D03*
%TD*%
D11*
%TO.P,J4,1,Pin_1*%
%TO.N,ROTB*%
X182372000Y-114300000D03*
D12*
%TO.P,J4,2,Pin_2*%
%TO.N,ROTA*%
X184912000Y-114300000D03*
%TO.P,J4,3,Pin_3*%
%TO.N,/pb2*%
X187452000Y-114300000D03*
%TO.P,J4,4,Pin_4*%
%TO.N,/pb3*%
X189992000Y-114300000D03*
%TO.P,J4,5,Pin_5*%
%TO.N,/pb4*%
X192532000Y-114300000D03*
%TO.P,J4,6,Pin_6*%
%TO.N,/pb5*%
X195072000Y-114300000D03*
%TO.P,J4,7,Pin_7*%
%TO.N,/pb6*%
X197612000Y-114300000D03*
%TO.P,J4,8,Pin_8*%
%TO.N,/pb7*%
X200152000Y-114300000D03*
%TO.P,J4,9,Pin_9*%
%TO.N,/pb8*%
X202692000Y-114300000D03*
%TO.P,J4,10,Pin_10*%
%TO.N,/pb9*%
X205232000Y-114300000D03*
%TO.P,J4,11,Pin_11*%
%TO.N,/pb10*%
X207772000Y-114300000D03*
%TO.P,J4,12,Pin_12*%
%TO.N,/pb11*%
X210312000Y-114300000D03*
%TO.P,J4,13,Pin_13*%
%TO.N,/pb12*%
X212852000Y-114300000D03*
%TO.P,J4,14,Pin_14*%
%TO.N,/pb13*%
X215392000Y-114300000D03*
%TO.P,J4,15,Pin_15*%
%TO.N,/pb14*%
X217932000Y-114300000D03*
%TO.P,J4,16,Pin_16*%
%TO.N,/pb15*%
X220472000Y-114300000D03*
%TD*%
D11*
%TO.P,J6,1,Pin_1*%
%TO.N,/pf0*%
X182372000Y-63500000D03*
D12*
%TO.P,J6,2,Pin_2*%
%TO.N,/pf1*%
X182372000Y-66040000D03*
%TO.P,J6,3,Pin_3*%
%TO.N,/pc13*%
X182372000Y-68580000D03*
%TO.P,J6,4,Pin_4*%
%TO.N,/pc14*%
X182372000Y-71120000D03*
%TO.P,J6,5,Pin_5*%
%TO.N,/pc15*%
X182372000Y-73660000D03*
%TD*%
D10*
%TO.P,SWK4,1,1*%
%TO.N,COL0*%
X128905000Y-64135000D03*
%TO.P,SWK4,2,2*%
%TO.N,Net-(D4-A)*%
X122555000Y-66675000D03*
%TD*%
D16*
%TO.P,D1,1,K*%
%TO.N,ROW0*%
X134493000Y-49945000D03*
%TO.P,D1,2,A*%
%TO.N,Net-(D1-A)*%
X134493000Y-47845000D03*
%TD*%
%TO.P,D8,1,K*%
%TO.N,Net-(D7-A)*%
X153543000Y-87537000D03*
%TO.P,D8,2,A*%
%TO.N,Net-(D8-A)*%
X153543000Y-85437000D03*
%TD*%
%TO.P,D4,1,K*%
%TO.N,ROW1*%
X134493000Y-68487000D03*
%TO.P,D4,2,A*%
%TO.N,Net-(D4-A)*%
X134493000Y-66387000D03*
%TD*%
%TO.P,D12,1,K*%
%TO.N,Net-(D11-A)*%
X172593000Y-106079000D03*
%TO.P,D12,2,A*%
%TO.N,Net-(D12-A)*%
X172593000Y-103979000D03*
%TD*%
%TO.P,D5,1,K*%
%TO.N,Net-(D4-A)*%
X153543000Y-68487000D03*
%TO.P,D5,2,A*%
%TO.N,Net-(D5-A)*%
X153543000Y-66387000D03*
%TD*%
%TO.P,D11,1,K*%
%TO.N,Net-(D10-A)*%
X153543000Y-106079000D03*
%TO.P,D11,2,A*%
%TO.N,Net-(D11-A)*%
X153543000Y-103979000D03*
%TD*%
%TO.P,D6,1,K*%
%TO.N,Net-(D5-A)*%
X172593000Y-68487000D03*
%TO.P,D6,2,A*%
%TO.N,Net-(D6-A)*%
X172593000Y-66387000D03*
%TD*%
%TO.P,D7,1,K*%
%TO.N,ROW2*%
X134493000Y-87537000D03*
%TO.P,D7,2,A*%
%TO.N,Net-(D7-A)*%
X134493000Y-85437000D03*
%TD*%
%TO.P,D9,1,K*%
%TO.N,Net-(D8-A)*%
X172593000Y-87537000D03*
%TO.P,D9,2,A*%
%TO.N,Net-(D9-A)*%
X172593000Y-85437000D03*
%TD*%
%TO.P,D3,1,K*%
%TO.N,Net-(D2-A)*%
X172593000Y-49945000D03*
%TO.P,D3,2,A*%
%TO.N,Net-(D3-A)*%
X172593000Y-47845000D03*
%TD*%
%TO.P,D2,1,K*%
%TO.N,Net-(D1-A)*%
X153543000Y-49945000D03*
%TO.P,D2,2,A*%
%TO.N,Net-(D2-A)*%
X153543000Y-47845000D03*
%TD*%
%TO.P,D10,1,K*%
%TO.N,ROW3*%
X134493000Y-106079000D03*
%TO.P,D10,2,A*%
%TO.N,Net-(D10-A)*%
X134493000Y-103979000D03*
%TD*%
D17*
%TO.N,ROTA*%
X182800000Y-56000000D03*
%TO.N,GND*%
X201676000Y-42672000D03*
X185000000Y-51600000D03*
X199136000Y-47244000D03*
X218236800Y-47294800D03*
X218287600Y-50596800D03*
X193294000Y-68637500D03*
X208788000Y-64516000D03*
X203454000Y-64516000D03*
X202819000Y-83820000D03*
X189400000Y-51400000D03*
%TO.N,ROTB*%
X186944000Y-57200000D03*
%TO.N,/nRST*%
X188976000Y-76200000D03*
X195326000Y-53594000D03*
%TO.N,+5V*%
X214764000Y-44958000D03*
X210312000Y-44958000D03*
%TO.N,+3V3*%
X203835000Y-84582000D03*
X192085500Y-70739000D03*
X192085500Y-77851000D03*
X185000000Y-55000000D03*
X206375000Y-70612000D03*
X193040000Y-45212000D03*
X193040000Y-48514000D03*
X187800000Y-55000000D03*
%TO.N,ROW0*%
X115189000Y-63627000D03*
X115189000Y-83947000D03*
X190246000Y-81280000D03*
%TO.N,ROW1*%
X190246000Y-82804000D03*
%TO.N,ROW2*%
X190246000Y-84582000D03*
X117983000Y-97155000D03*
%TO.N,ROW3*%
X190246000Y-86106000D03*
%TO.N,/pc13*%
X193400000Y-39878000D03*
X178562000Y-43180000D03*
%TO.N,usart2_tx*%
X204724000Y-68072000D03*
X215900000Y-73152000D03*
%TO.N,usart2_rx*%
X215900000Y-70612000D03*
X204724000Y-67056000D03*
%TO.N,/pb3*%
X198882000Y-64516000D03*
X194183000Y-82550000D03*
X191008000Y-103505000D03*
X193675000Y-86995000D03*
%TO.N,/pb4*%
X193421000Y-103632000D03*
X199004868Y-65781868D03*
X195199000Y-83058000D03*
X194891343Y-86560343D03*
%TO.N,/pb5*%
X201238660Y-67923991D03*
X195580000Y-103632000D03*
X207137000Y-84455000D03*
X207137000Y-86868000D03*
%TO.N,/pb6*%
X200695330Y-67108995D03*
X197485000Y-103632000D03*
%TO.N,/pb7*%
X200152000Y-66294000D03*
X199517000Y-103632000D03*
%TO.N,/pb8*%
X185928000Y-68453000D03*
X194564000Y-96647000D03*
X191135000Y-93345000D03*
X184277000Y-80137000D03*
%TO.N,/pb9*%
X185928000Y-69850000D03*
X195580000Y-95758000D03*
X192151000Y-92329000D03*
X185928000Y-80137000D03*
%TO.N,COL0*%
X181102000Y-107950000D03*
%TO.N,COL1*%
X142875000Y-98679000D03*
%TO.N,COL2*%
X175006000Y-99060000D03*
%TO.N,/pa7*%
X180721000Y-104140000D03*
%TO.N,USB-D+*%
X208534000Y-45720000D03*
%TO.N,USB-D-*%
X209677000Y-46609000D03*
%TO.N,Net-(J2-D+-PadA6)*%
X212575000Y-48275000D03*
X204724000Y-42926000D03*
%TO.N,Net-(J2-D--PadA7)*%
X211500000Y-47325000D03*
X213550000Y-47325000D03*
%TD*%
D18*
%TO.N,ROTA*%
X179070000Y-108458000D02*
X184912000Y-114300000D01*
X191381000Y-86595112D02*
X179070000Y-98906112D01*
X191381000Y-68969000D02*
X191381000Y-86595112D01*
X179070000Y-98906112D02*
X179070000Y-108458000D01*
X196031000Y-53301979D02*
X196031000Y-64319000D01*
X193491000Y-52889000D02*
X195618021Y-52889000D01*
X196031000Y-64319000D02*
X191381000Y-68969000D01*
X195618021Y-52889000D02*
X196031000Y-53301979D01*
X190380000Y-56000000D02*
X193491000Y-52889000D01*
X182800000Y-56000000D02*
X190380000Y-56000000D01*
%TO.N,GND*%
X208050000Y-38300000D02*
X216690000Y-38300000D01*
X216510000Y-42680000D02*
X216690000Y-42500000D01*
X201676000Y-44704000D02*
X199136000Y-47244000D01*
X218236800Y-47294800D02*
X218236800Y-50546000D01*
X185000000Y-51600000D02*
X189200000Y-51600000D01*
X208044000Y-42834000D02*
X208044000Y-42534000D01*
X218287600Y-53746400D02*
X218287600Y-50596800D01*
X216684000Y-42440000D02*
X216684000Y-42834000D01*
X208788000Y-64516000D02*
X207518000Y-64516000D01*
X208050000Y-42500000D02*
X208050000Y-38300000D01*
X207518000Y-64516000D02*
X218287600Y-53746400D01*
X189200000Y-51600000D02*
X189400000Y-51400000D01*
X194056000Y-83820000D02*
X193294000Y-83058000D01*
X208230000Y-42680000D02*
X216510000Y-42680000D01*
X218236800Y-50546000D02*
X218287600Y-50596800D01*
X216690000Y-42500000D02*
X216690000Y-38300000D01*
X193294000Y-83058000D02*
X193294000Y-68637500D01*
X201676000Y-42672000D02*
X201676000Y-44704000D01*
X207518000Y-64516000D02*
X203454000Y-64516000D01*
X202819000Y-83820000D02*
X194056000Y-83820000D01*
X208050000Y-42500000D02*
X208230000Y-42680000D01*
%TO.N,ROTB*%
X190951000Y-80987979D02*
X190951000Y-86417000D01*
X186944000Y-57200000D02*
X186944000Y-76980979D01*
X181864000Y-114300000D02*
X182372000Y-114300000D01*
X178308000Y-99060000D02*
X178308000Y-110744000D01*
X186944000Y-76980979D02*
X190951000Y-80987979D01*
X190951000Y-86417000D02*
X178308000Y-99060000D01*
X178308000Y-110744000D02*
X181864000Y-114300000D01*
%TO.N,/nRST*%
X188976000Y-59944000D02*
X188976000Y-76200000D01*
X195326000Y-53594000D02*
X188976000Y-59944000D01*
%TO.N,+5V*%
X213531500Y-44958000D02*
X210312000Y-44958000D01*
X214764000Y-44958000D02*
X213531500Y-44958000D01*
%TO.N,+3V3*%
X206375000Y-70485000D02*
X206375000Y-70612000D01*
X203835000Y-84582000D02*
X205232000Y-85979000D01*
X206883000Y-69977000D02*
X206375000Y-70485000D01*
X203835000Y-84582000D02*
X202565000Y-85852000D01*
X192085500Y-77851000D02*
X192085500Y-70739000D01*
X194056000Y-85852000D02*
X192024000Y-83820000D01*
X209550000Y-70866000D02*
X208661000Y-69977000D01*
X209550000Y-83439000D02*
X209550000Y-70866000D01*
X205232000Y-85979000D02*
X207010000Y-85979000D01*
X208661000Y-69977000D02*
X206883000Y-69977000D01*
X202565000Y-85852000D02*
X194056000Y-85852000D01*
X193040000Y-48514000D02*
X193040000Y-45212000D01*
X207010000Y-85979000D02*
X209550000Y-83439000D01*
X192024000Y-83820000D02*
X192024000Y-77851000D01*
X192024000Y-77851000D02*
X192085500Y-77851000D01*
X185000000Y-55000000D02*
X187800000Y-55000000D01*
%TO.N,ROW0*%
X123698000Y-117348000D02*
X115189000Y-108839000D01*
X115189000Y-63627000D02*
X115189000Y-62738000D01*
X222758000Y-114427000D02*
X219837000Y-117348000D01*
X176784000Y-63246000D02*
X172466000Y-58928000D01*
X134493000Y-57531000D02*
X134493000Y-49945000D01*
X190246000Y-81280000D02*
X180086000Y-81280000D01*
X176784000Y-77978000D02*
X176784000Y-63246000D01*
X172466000Y-58928000D02*
X135890000Y-58928000D01*
X118999000Y-58928000D02*
X135890000Y-58928000D01*
X115189000Y-108839000D02*
X115189000Y-83947000D01*
X221742000Y-108712000D02*
X222758000Y-109728000D01*
X180086000Y-81280000D02*
X176784000Y-77978000D01*
X219837000Y-117348000D02*
X123698000Y-117348000D01*
X115189000Y-62738000D02*
X118999000Y-58928000D01*
X220472000Y-108712000D02*
X221742000Y-108712000D01*
X222758000Y-109728000D02*
X222758000Y-114427000D01*
X135890000Y-58928000D02*
X134493000Y-57531000D01*
%TO.N,Net-(D1-A)*%
X137160000Y-49530000D02*
X135475000Y-47845000D01*
X153035000Y-58420000D02*
X138430000Y-58420000D01*
X138430000Y-58420000D02*
X137160000Y-57150000D01*
X134273000Y-47625000D02*
X122555000Y-47625000D01*
X135475000Y-47845000D02*
X134493000Y-47845000D01*
X153543000Y-49945000D02*
X153543000Y-57912000D01*
X153543000Y-57912000D02*
X153035000Y-58420000D01*
X134493000Y-47845000D02*
X134273000Y-47625000D01*
X137160000Y-57150000D02*
X137160000Y-49530000D01*
%TO.N,Net-(D2-A)*%
X171450000Y-58420000D02*
X156845000Y-58420000D01*
X172593000Y-49945000D02*
X172593000Y-57277000D01*
X156210000Y-57785000D02*
X156210000Y-48895000D01*
X156210000Y-48895000D02*
X155160000Y-47845000D01*
X172593000Y-57277000D02*
X171450000Y-58420000D01*
X153323000Y-47625000D02*
X141605000Y-47625000D01*
X155160000Y-47845000D02*
X153543000Y-47845000D01*
X156845000Y-58420000D02*
X156210000Y-57785000D01*
X153543000Y-47845000D02*
X153323000Y-47625000D01*
%TO.N,Net-(D3-A)*%
X172593000Y-47845000D02*
X172373000Y-47625000D01*
X172373000Y-47625000D02*
X160655000Y-47625000D01*
%TO.N,ROW1*%
X220472000Y-106172000D02*
X222885000Y-106172000D01*
X224155000Y-107442000D02*
X224155000Y-113665000D01*
X138430000Y-78994000D02*
X134493000Y-75057000D01*
X222885000Y-106172000D02*
X224155000Y-107442000D01*
X114484000Y-84239021D02*
X114484000Y-81223000D01*
X123519888Y-117778000D02*
X114681000Y-108939112D01*
X178054000Y-82804000D02*
X173228000Y-77978000D01*
X139446000Y-77978000D02*
X138430000Y-78994000D01*
X114484000Y-81223000D02*
X116713000Y-78994000D01*
X116713000Y-78994000D02*
X138430000Y-78994000D01*
X220042000Y-117778000D02*
X123519888Y-117778000D01*
X224155000Y-113665000D02*
X220042000Y-117778000D01*
X114681000Y-84436021D02*
X114484000Y-84239021D01*
X173228000Y-77978000D02*
X139446000Y-77978000D01*
X134493000Y-75057000D02*
X134493000Y-68487000D01*
X114681000Y-108939112D02*
X114681000Y-84436021D01*
X190246000Y-82804000D02*
X178054000Y-82804000D01*
%TO.N,Net-(D4-A)*%
X122830000Y-66400000D02*
X134480000Y-66400000D01*
X153543000Y-68487000D02*
X153543000Y-76962000D01*
X136872000Y-66387000D02*
X134493000Y-66387000D01*
X153035000Y-77470000D02*
X138430000Y-77470000D01*
X122555000Y-66675000D02*
X122830000Y-66400000D01*
X138430000Y-77470000D02*
X137795000Y-76835000D01*
X137795000Y-76835000D02*
X137795000Y-67310000D01*
X153543000Y-76962000D02*
X153035000Y-77470000D01*
X137795000Y-67310000D02*
X136872000Y-66387000D01*
X134480000Y-66400000D02*
X134493000Y-66387000D01*
%TO.N,Net-(D5-A)*%
X141890000Y-66390000D02*
X153540000Y-66390000D01*
X156210000Y-67945000D02*
X154652000Y-66387000D01*
X154652000Y-66387000D02*
X153543000Y-66387000D01*
X172593000Y-76327000D02*
X171450000Y-77470000D01*
X153540000Y-66390000D02*
X153543000Y-66387000D01*
X172593000Y-68487000D02*
X172593000Y-76327000D01*
X141605000Y-66675000D02*
X141890000Y-66390000D01*
X156845000Y-77470000D02*
X156210000Y-76835000D01*
X171450000Y-77470000D02*
X156845000Y-77470000D01*
X156210000Y-76835000D02*
X156210000Y-67945000D01*
%TO.N,Net-(D6-A)*%
X160940000Y-66390000D02*
X172590000Y-66390000D01*
X160655000Y-66675000D02*
X160940000Y-66390000D01*
X172590000Y-66390000D02*
X172593000Y-66387000D01*
%TO.N,ROW2*%
X117983000Y-97155000D02*
X132207000Y-97155000D01*
X190246000Y-84582000D02*
X177878000Y-96950000D01*
X136574000Y-96950000D02*
X134493000Y-94869000D01*
X132207000Y-97155000D02*
X134493000Y-94869000D01*
X177878000Y-96950000D02*
X136574000Y-96950000D01*
X134493000Y-94869000D02*
X134493000Y-87537000D01*
%TO.N,Net-(D7-A)*%
X137160000Y-86360000D02*
X136237000Y-85437000D01*
X134490000Y-85440000D02*
X134493000Y-85437000D01*
X137160000Y-95250000D02*
X137160000Y-86360000D01*
X122840000Y-85440000D02*
X134490000Y-85440000D01*
X153543000Y-87537000D02*
X153543000Y-95377000D01*
X152400000Y-96520000D02*
X138430000Y-96520000D01*
X153543000Y-95377000D02*
X152400000Y-96520000D01*
X136237000Y-85437000D02*
X134493000Y-85437000D01*
X138430000Y-96520000D02*
X137160000Y-95250000D01*
X122555000Y-85725000D02*
X122840000Y-85440000D01*
%TO.N,Net-(D8-A)*%
X157480000Y-96520000D02*
X156210000Y-95250000D01*
X156210000Y-95250000D02*
X156210000Y-86360000D01*
X155287000Y-85437000D02*
X153543000Y-85437000D01*
X141605000Y-85725000D02*
X141900000Y-85430000D01*
X172593000Y-87537000D02*
X172593000Y-96012000D01*
X172593000Y-96012000D02*
X172085000Y-96520000D01*
X172085000Y-96520000D02*
X157480000Y-96520000D01*
X156210000Y-86360000D02*
X155287000Y-85437000D01*
X153536000Y-85430000D02*
X153543000Y-85437000D01*
X141900000Y-85430000D02*
X153536000Y-85430000D01*
%TO.N,Net-(D9-A)*%
X160655000Y-85725000D02*
X160930000Y-85450000D01*
X172580000Y-85450000D02*
X172593000Y-85437000D01*
X160930000Y-85450000D02*
X172580000Y-85450000D01*
%TO.N,ROW3*%
X122428000Y-114808000D02*
X131064000Y-114808000D01*
X208419000Y-113145000D02*
X186743583Y-113145000D01*
X185390417Y-115455000D02*
X181217000Y-115455000D01*
X131064000Y-114808000D02*
X134493000Y-111379000D01*
X190246000Y-86106000D02*
X177038000Y-99314000D01*
X134493000Y-111379000D02*
X134493000Y-106079000D01*
X177038000Y-111276000D02*
X177038000Y-99314000D01*
X118618000Y-101092000D02*
X118618000Y-110998000D01*
X177038000Y-99314000D02*
X175104000Y-97380000D01*
X118618000Y-110998000D02*
X122428000Y-114808000D01*
X186067000Y-113821583D02*
X186067000Y-114778417D01*
X175104000Y-97380000D02*
X132590112Y-97380000D01*
X132590112Y-97380000D02*
X132385112Y-97585000D01*
X122125000Y-97585000D02*
X118618000Y-101092000D01*
X181217000Y-115455000D02*
X177038000Y-111276000D01*
X132385112Y-97585000D02*
X122125000Y-97585000D01*
X186743583Y-113145000D02*
X186067000Y-113821583D01*
X220472000Y-101092000D02*
X208419000Y-113145000D01*
X186067000Y-114778417D02*
X185390417Y-115455000D01*
%TO.N,Net-(D10-A)*%
X133697000Y-104775000D02*
X134493000Y-103979000D01*
X153543000Y-114427000D02*
X152400000Y-115570000D01*
X137160000Y-114300000D02*
X137160000Y-104775000D01*
X137160000Y-104775000D02*
X136364000Y-103979000D01*
X136364000Y-103979000D02*
X134493000Y-103979000D01*
X122555000Y-104775000D02*
X133697000Y-104775000D01*
X138430000Y-115570000D02*
X137160000Y-114300000D01*
X152400000Y-115570000D02*
X138430000Y-115570000D01*
X153543000Y-106079000D02*
X153543000Y-114427000D01*
%TO.N,Net-(D11-A)*%
X141605000Y-104775000D02*
X141950000Y-104430000D01*
X172593000Y-106079000D02*
X172593000Y-114427000D01*
X156210000Y-114300000D02*
X156210000Y-104775000D01*
X141950000Y-104430000D02*
X153092000Y-104430000D01*
X157480000Y-115570000D02*
X156210000Y-114300000D01*
X153092000Y-104430000D02*
X153543000Y-103979000D01*
X156210000Y-104775000D02*
X155414000Y-103979000D01*
X172593000Y-114427000D02*
X171450000Y-115570000D01*
X171450000Y-115570000D02*
X157480000Y-115570000D01*
X155414000Y-103979000D02*
X153543000Y-103979000D01*
%TO.N,Net-(D12-A)*%
X172092000Y-104480000D02*
X160950000Y-104480000D01*
X172593000Y-103979000D02*
X172092000Y-104480000D01*
X160950000Y-104480000D02*
X160655000Y-104775000D01*
%TO.N,/pc13*%
X180340000Y-39878000D02*
X178562000Y-41656000D01*
X193400000Y-39878000D02*
X180340000Y-39878000D01*
X178562000Y-41656000D02*
X178562000Y-43180000D01*
%TO.N,usart2_tx*%
X204724000Y-68072000D02*
X210820000Y-68072000D01*
X210820000Y-68072000D02*
X215900000Y-73152000D01*
%TO.N,usart2_rx*%
X212344000Y-67056000D02*
X204724000Y-67056000D01*
X215900000Y-70612000D02*
X212344000Y-67056000D01*
%TO.N,/pb3*%
X189357000Y-91821000D02*
X189357000Y-91313000D01*
X194183000Y-81091938D02*
X194183000Y-82550000D01*
X191008000Y-103505000D02*
X189357000Y-101854000D01*
X189357000Y-91313000D02*
X193675000Y-86995000D01*
X189357000Y-101854000D02*
X189357000Y-91821000D01*
X194183000Y-69215000D02*
X198882000Y-64516000D01*
X194183000Y-81091938D02*
X194183000Y-69215000D01*
%TO.N,/pb4*%
X190430000Y-92272000D02*
X190430000Y-96704000D01*
X193675000Y-99949000D02*
X193421000Y-100203000D01*
X199004868Y-65781868D02*
X195199000Y-69587737D01*
X195199000Y-69587737D02*
X195199000Y-83058000D01*
X192151000Y-90551000D02*
X194891343Y-87810657D01*
X192151000Y-90551000D02*
X190430000Y-92272000D01*
X190430000Y-96704000D02*
X193675000Y-99949000D01*
X194891343Y-87810657D02*
X194891343Y-86560343D01*
X193421000Y-100203000D02*
X193421000Y-103632000D01*
%TO.N,/pb5*%
X201238660Y-78556660D02*
X207137000Y-84455000D01*
X201238660Y-67923991D02*
X201238660Y-78556660D01*
X207137000Y-92075000D02*
X195580000Y-103632000D01*
X207137000Y-86868000D02*
X207137000Y-92075000D01*
%TO.N,/pb6*%
X203907690Y-69596000D02*
X206655888Y-69596000D01*
X209980000Y-91137000D02*
X197485000Y-103632000D01*
X206704888Y-69547000D02*
X208839112Y-69547000D01*
X209980000Y-70687888D02*
X209980000Y-91137000D01*
X206655888Y-69596000D02*
X206704888Y-69547000D01*
X208839112Y-69547000D02*
X209980000Y-70687888D01*
X200695330Y-67108995D02*
X201420685Y-67108995D01*
X201420685Y-67108995D02*
X203907690Y-69596000D01*
%TO.N,/pb7*%
X208763224Y-68863000D02*
X210410000Y-70509776D01*
X201213802Y-66294000D02*
X203782802Y-68863000D01*
X200152000Y-66294000D02*
X201213802Y-66294000D01*
X210410000Y-70509776D02*
X210410000Y-91315112D01*
X203782802Y-68863000D02*
X208763224Y-68863000D01*
X199517000Y-102208112D02*
X199517000Y-103632000D01*
X210410000Y-91315112D02*
X199517000Y-102208112D01*
%TO.N,/pb8*%
X194437000Y-96647000D02*
X194564000Y-96647000D01*
X184277000Y-70104000D02*
X184277000Y-80137000D01*
X185928000Y-68453000D02*
X184277000Y-70104000D01*
X191135000Y-93345000D02*
X194437000Y-96647000D01*
%TO.N,/pb9*%
X185928000Y-69850000D02*
X185928000Y-80137000D01*
X192151000Y-92329000D02*
X195580000Y-95758000D01*
%TO.N,COL0*%
X211074000Y-107950000D02*
X181102000Y-107950000D01*
X220472000Y-98552000D02*
X211074000Y-107950000D01*
%TO.N,COL1*%
X211582000Y-113030000D02*
X211582000Y-114663417D01*
X147790000Y-108298757D02*
X146398757Y-109690000D01*
X142875000Y-100711000D02*
X144399000Y-102235000D01*
X154813000Y-106458566D02*
X153559434Y-105205000D01*
X220950417Y-92317000D02*
X222758000Y-94124583D01*
X211582000Y-114663417D02*
X209786417Y-116459000D01*
X219317000Y-92993583D02*
X219993583Y-92317000D01*
X143040000Y-108298757D02*
X143040000Y-108196971D01*
X140200000Y-105356971D02*
X140200000Y-104193029D01*
X143040000Y-108196971D02*
X140200000Y-105356971D01*
X220950417Y-104787000D02*
X219825000Y-104787000D01*
X140200000Y-104193029D02*
X142158029Y-102235000D01*
X144431243Y-109690000D02*
X143040000Y-108298757D01*
X222758000Y-102979417D02*
X220950417Y-104787000D01*
X142158029Y-102235000D02*
X144399000Y-102235000D01*
X147790000Y-106331243D02*
X147790000Y-108298757D01*
X219993583Y-92317000D02*
X220950417Y-92317000D01*
X154813000Y-116459000D02*
X154813000Y-106458566D01*
X222758000Y-94124583D02*
X222758000Y-102979417D01*
X148916243Y-105205000D02*
X147790000Y-106331243D01*
X219825000Y-104787000D02*
X211582000Y-113030000D01*
X153559434Y-105205000D02*
X148916243Y-105205000D01*
X219317000Y-94857000D02*
X219317000Y-92993583D01*
X142875000Y-98679000D02*
X142875000Y-100711000D01*
X209786417Y-116459000D02*
X154813000Y-116459000D01*
X220472000Y-96012000D02*
X219317000Y-94857000D01*
X144399000Y-102235000D02*
X147955000Y-102235000D01*
X146398757Y-109690000D02*
X144431243Y-109690000D01*
%TO.N,COL2*%
X208927000Y-114778417D02*
X207820417Y-115885000D01*
X219993583Y-102247000D02*
X208927000Y-113313583D01*
X220472000Y-93472000D02*
X221996000Y-94996000D01*
X174371000Y-103124000D02*
X173482000Y-102235000D01*
X220950417Y-102247000D02*
X219993583Y-102247000D01*
X175006000Y-100711000D02*
X173482000Y-102235000D01*
X173482000Y-102235000D02*
X171739434Y-102235000D01*
X221996000Y-101201417D02*
X220950417Y-102247000D01*
X208927000Y-113313583D02*
X208927000Y-114778417D01*
X175006000Y-99060000D02*
X175006000Y-100711000D01*
X181038888Y-115885000D02*
X174371000Y-109217112D01*
X221996000Y-94996000D02*
X221996000Y-101201417D01*
X207820417Y-115885000D02*
X181038888Y-115885000D01*
X171739434Y-102235000D02*
X167005000Y-102235000D01*
X174371000Y-109217112D02*
X174371000Y-103124000D01*
%TO.N,/pa7*%
X217805000Y-99441000D02*
X217805000Y-93599000D01*
X180721000Y-104140000D02*
X180721000Y-105664000D01*
X217805000Y-93599000D02*
X220472000Y-90932000D01*
X210185000Y-107061000D02*
X217805000Y-99441000D01*
X182118000Y-107061000D02*
X210185000Y-107061000D01*
X180721000Y-105664000D02*
X182118000Y-107061000D01*
D19*
%TO.N,USB-D+*%
X219774200Y-45720000D02*
X223999000Y-49944800D01*
X223999000Y-77245000D02*
X220472000Y-80772000D01*
X223999000Y-49944800D02*
X223999000Y-77245000D01*
X208534000Y-45720000D02*
X219774200Y-45720000D01*
%TO.N,USB-D-*%
X223549000Y-77058603D02*
X222375603Y-78232000D01*
X223549000Y-50131200D02*
X223549000Y-77058603D01*
X222375603Y-78232000D02*
X220472000Y-78232000D01*
X219587801Y-46170001D02*
X223549000Y-50131200D01*
X209677000Y-46609000D02*
X210115999Y-46170001D01*
X210115999Y-46170001D02*
X219587801Y-46170001D01*
D18*
%TO.N,Net-(J2-D+-PadA6)*%
X210073000Y-48275000D02*
X204724000Y-42926000D01*
X212575000Y-48275000D02*
X210073000Y-48275000D01*
%TO.N,Net-(J2-D--PadA7)*%
X213550000Y-47325000D02*
X211500000Y-47325000D01*
%TD*%
M02*
