%TF.GenerationSoftware,KiCad,Pcbnew,7.0.6-7.0.6~ubuntu20.04.1*%
%TF.CreationDate,2023-09-11T17:25:35+08:00*%
%TF.ProjectId,pro72,70726f37-322e-46b6-9963-61645f706362,rev?*%
%TF.SameCoordinates,Original*%
%TF.FileFunction,Legend,Bot*%
%TF.FilePolarity,Positive*%
%FSLAX46Y46*%
G04 Gerber Fmt 4.6, Leading zero omitted, Abs format (unit mm)*
G04 Created by KiCad (PCBNEW 7.0.6-7.0.6~ubuntu20.04.1) date 2023-09-11 17:25:35*
%MOMM*%
%LPD*%
G01*
G04 APERTURE LIST*
%ADD10C,0.150000*%
%ADD11C,0.120000*%
G04 APERTURE END LIST*
D10*
X136797819Y-48156905D02*
X135797819Y-48156905D01*
X135797819Y-48156905D02*
X135797819Y-48395000D01*
X135797819Y-48395000D02*
X135845438Y-48537857D01*
X135845438Y-48537857D02*
X135940676Y-48633095D01*
X135940676Y-48633095D02*
X136035914Y-48680714D01*
X136035914Y-48680714D02*
X136226390Y-48728333D01*
X136226390Y-48728333D02*
X136369247Y-48728333D01*
X136369247Y-48728333D02*
X136559723Y-48680714D01*
X136559723Y-48680714D02*
X136654961Y-48633095D01*
X136654961Y-48633095D02*
X136750200Y-48537857D01*
X136750200Y-48537857D02*
X136797819Y-48395000D01*
X136797819Y-48395000D02*
X136797819Y-48156905D01*
X136797819Y-49680714D02*
X136797819Y-49109286D01*
X136797819Y-49395000D02*
X135797819Y-49395000D01*
X135797819Y-49395000D02*
X135940676Y-49299762D01*
X135940676Y-49299762D02*
X136035914Y-49204524D01*
X136035914Y-49204524D02*
X136083533Y-49109286D01*
X155847819Y-85748905D02*
X154847819Y-85748905D01*
X154847819Y-85748905D02*
X154847819Y-85987000D01*
X154847819Y-85987000D02*
X154895438Y-86129857D01*
X154895438Y-86129857D02*
X154990676Y-86225095D01*
X154990676Y-86225095D02*
X155085914Y-86272714D01*
X155085914Y-86272714D02*
X155276390Y-86320333D01*
X155276390Y-86320333D02*
X155419247Y-86320333D01*
X155419247Y-86320333D02*
X155609723Y-86272714D01*
X155609723Y-86272714D02*
X155704961Y-86225095D01*
X155704961Y-86225095D02*
X155800200Y-86129857D01*
X155800200Y-86129857D02*
X155847819Y-85987000D01*
X155847819Y-85987000D02*
X155847819Y-85748905D01*
X155276390Y-86891762D02*
X155228771Y-86796524D01*
X155228771Y-86796524D02*
X155181152Y-86748905D01*
X155181152Y-86748905D02*
X155085914Y-86701286D01*
X155085914Y-86701286D02*
X155038295Y-86701286D01*
X155038295Y-86701286D02*
X154943057Y-86748905D01*
X154943057Y-86748905D02*
X154895438Y-86796524D01*
X154895438Y-86796524D02*
X154847819Y-86891762D01*
X154847819Y-86891762D02*
X154847819Y-87082238D01*
X154847819Y-87082238D02*
X154895438Y-87177476D01*
X154895438Y-87177476D02*
X154943057Y-87225095D01*
X154943057Y-87225095D02*
X155038295Y-87272714D01*
X155038295Y-87272714D02*
X155085914Y-87272714D01*
X155085914Y-87272714D02*
X155181152Y-87225095D01*
X155181152Y-87225095D02*
X155228771Y-87177476D01*
X155228771Y-87177476D02*
X155276390Y-87082238D01*
X155276390Y-87082238D02*
X155276390Y-86891762D01*
X155276390Y-86891762D02*
X155324009Y-86796524D01*
X155324009Y-86796524D02*
X155371628Y-86748905D01*
X155371628Y-86748905D02*
X155466866Y-86701286D01*
X155466866Y-86701286D02*
X155657342Y-86701286D01*
X155657342Y-86701286D02*
X155752580Y-86748905D01*
X155752580Y-86748905D02*
X155800200Y-86796524D01*
X155800200Y-86796524D02*
X155847819Y-86891762D01*
X155847819Y-86891762D02*
X155847819Y-87082238D01*
X155847819Y-87082238D02*
X155800200Y-87177476D01*
X155800200Y-87177476D02*
X155752580Y-87225095D01*
X155752580Y-87225095D02*
X155657342Y-87272714D01*
X155657342Y-87272714D02*
X155466866Y-87272714D01*
X155466866Y-87272714D02*
X155371628Y-87225095D01*
X155371628Y-87225095D02*
X155324009Y-87177476D01*
X155324009Y-87177476D02*
X155276390Y-87082238D01*
X136797819Y-66698905D02*
X135797819Y-66698905D01*
X135797819Y-66698905D02*
X135797819Y-66937000D01*
X135797819Y-66937000D02*
X135845438Y-67079857D01*
X135845438Y-67079857D02*
X135940676Y-67175095D01*
X135940676Y-67175095D02*
X136035914Y-67222714D01*
X136035914Y-67222714D02*
X136226390Y-67270333D01*
X136226390Y-67270333D02*
X136369247Y-67270333D01*
X136369247Y-67270333D02*
X136559723Y-67222714D01*
X136559723Y-67222714D02*
X136654961Y-67175095D01*
X136654961Y-67175095D02*
X136750200Y-67079857D01*
X136750200Y-67079857D02*
X136797819Y-66937000D01*
X136797819Y-66937000D02*
X136797819Y-66698905D01*
X136131152Y-68127476D02*
X136797819Y-68127476D01*
X135750200Y-67889381D02*
X136464485Y-67651286D01*
X136464485Y-67651286D02*
X136464485Y-68270333D01*
X174897819Y-103814714D02*
X173897819Y-103814714D01*
X173897819Y-103814714D02*
X173897819Y-104052809D01*
X173897819Y-104052809D02*
X173945438Y-104195666D01*
X173945438Y-104195666D02*
X174040676Y-104290904D01*
X174040676Y-104290904D02*
X174135914Y-104338523D01*
X174135914Y-104338523D02*
X174326390Y-104386142D01*
X174326390Y-104386142D02*
X174469247Y-104386142D01*
X174469247Y-104386142D02*
X174659723Y-104338523D01*
X174659723Y-104338523D02*
X174754961Y-104290904D01*
X174754961Y-104290904D02*
X174850200Y-104195666D01*
X174850200Y-104195666D02*
X174897819Y-104052809D01*
X174897819Y-104052809D02*
X174897819Y-103814714D01*
X174897819Y-105338523D02*
X174897819Y-104767095D01*
X174897819Y-105052809D02*
X173897819Y-105052809D01*
X173897819Y-105052809D02*
X174040676Y-104957571D01*
X174040676Y-104957571D02*
X174135914Y-104862333D01*
X174135914Y-104862333D02*
X174183533Y-104767095D01*
X173993057Y-105719476D02*
X173945438Y-105767095D01*
X173945438Y-105767095D02*
X173897819Y-105862333D01*
X173897819Y-105862333D02*
X173897819Y-106100428D01*
X173897819Y-106100428D02*
X173945438Y-106195666D01*
X173945438Y-106195666D02*
X173993057Y-106243285D01*
X173993057Y-106243285D02*
X174088295Y-106290904D01*
X174088295Y-106290904D02*
X174183533Y-106290904D01*
X174183533Y-106290904D02*
X174326390Y-106243285D01*
X174326390Y-106243285D02*
X174897819Y-105671857D01*
X174897819Y-105671857D02*
X174897819Y-106290904D01*
X155847819Y-66698905D02*
X154847819Y-66698905D01*
X154847819Y-66698905D02*
X154847819Y-66937000D01*
X154847819Y-66937000D02*
X154895438Y-67079857D01*
X154895438Y-67079857D02*
X154990676Y-67175095D01*
X154990676Y-67175095D02*
X155085914Y-67222714D01*
X155085914Y-67222714D02*
X155276390Y-67270333D01*
X155276390Y-67270333D02*
X155419247Y-67270333D01*
X155419247Y-67270333D02*
X155609723Y-67222714D01*
X155609723Y-67222714D02*
X155704961Y-67175095D01*
X155704961Y-67175095D02*
X155800200Y-67079857D01*
X155800200Y-67079857D02*
X155847819Y-66937000D01*
X155847819Y-66937000D02*
X155847819Y-66698905D01*
X154847819Y-68175095D02*
X154847819Y-67698905D01*
X154847819Y-67698905D02*
X155324009Y-67651286D01*
X155324009Y-67651286D02*
X155276390Y-67698905D01*
X155276390Y-67698905D02*
X155228771Y-67794143D01*
X155228771Y-67794143D02*
X155228771Y-68032238D01*
X155228771Y-68032238D02*
X155276390Y-68127476D01*
X155276390Y-68127476D02*
X155324009Y-68175095D01*
X155324009Y-68175095D02*
X155419247Y-68222714D01*
X155419247Y-68222714D02*
X155657342Y-68222714D01*
X155657342Y-68222714D02*
X155752580Y-68175095D01*
X155752580Y-68175095D02*
X155800200Y-68127476D01*
X155800200Y-68127476D02*
X155847819Y-68032238D01*
X155847819Y-68032238D02*
X155847819Y-67794143D01*
X155847819Y-67794143D02*
X155800200Y-67698905D01*
X155800200Y-67698905D02*
X155752580Y-67651286D01*
X155847819Y-103814714D02*
X154847819Y-103814714D01*
X154847819Y-103814714D02*
X154847819Y-104052809D01*
X154847819Y-104052809D02*
X154895438Y-104195666D01*
X154895438Y-104195666D02*
X154990676Y-104290904D01*
X154990676Y-104290904D02*
X155085914Y-104338523D01*
X155085914Y-104338523D02*
X155276390Y-104386142D01*
X155276390Y-104386142D02*
X155419247Y-104386142D01*
X155419247Y-104386142D02*
X155609723Y-104338523D01*
X155609723Y-104338523D02*
X155704961Y-104290904D01*
X155704961Y-104290904D02*
X155800200Y-104195666D01*
X155800200Y-104195666D02*
X155847819Y-104052809D01*
X155847819Y-104052809D02*
X155847819Y-103814714D01*
X155847819Y-105338523D02*
X155847819Y-104767095D01*
X155847819Y-105052809D02*
X154847819Y-105052809D01*
X154847819Y-105052809D02*
X154990676Y-104957571D01*
X154990676Y-104957571D02*
X155085914Y-104862333D01*
X155085914Y-104862333D02*
X155133533Y-104767095D01*
X155847819Y-106290904D02*
X155847819Y-105719476D01*
X155847819Y-106005190D02*
X154847819Y-106005190D01*
X154847819Y-106005190D02*
X154990676Y-105909952D01*
X154990676Y-105909952D02*
X155085914Y-105814714D01*
X155085914Y-105814714D02*
X155133533Y-105719476D01*
X174897819Y-66698905D02*
X173897819Y-66698905D01*
X173897819Y-66698905D02*
X173897819Y-66937000D01*
X173897819Y-66937000D02*
X173945438Y-67079857D01*
X173945438Y-67079857D02*
X174040676Y-67175095D01*
X174040676Y-67175095D02*
X174135914Y-67222714D01*
X174135914Y-67222714D02*
X174326390Y-67270333D01*
X174326390Y-67270333D02*
X174469247Y-67270333D01*
X174469247Y-67270333D02*
X174659723Y-67222714D01*
X174659723Y-67222714D02*
X174754961Y-67175095D01*
X174754961Y-67175095D02*
X174850200Y-67079857D01*
X174850200Y-67079857D02*
X174897819Y-66937000D01*
X174897819Y-66937000D02*
X174897819Y-66698905D01*
X173897819Y-68127476D02*
X173897819Y-67937000D01*
X173897819Y-67937000D02*
X173945438Y-67841762D01*
X173945438Y-67841762D02*
X173993057Y-67794143D01*
X173993057Y-67794143D02*
X174135914Y-67698905D01*
X174135914Y-67698905D02*
X174326390Y-67651286D01*
X174326390Y-67651286D02*
X174707342Y-67651286D01*
X174707342Y-67651286D02*
X174802580Y-67698905D01*
X174802580Y-67698905D02*
X174850200Y-67746524D01*
X174850200Y-67746524D02*
X174897819Y-67841762D01*
X174897819Y-67841762D02*
X174897819Y-68032238D01*
X174897819Y-68032238D02*
X174850200Y-68127476D01*
X174850200Y-68127476D02*
X174802580Y-68175095D01*
X174802580Y-68175095D02*
X174707342Y-68222714D01*
X174707342Y-68222714D02*
X174469247Y-68222714D01*
X174469247Y-68222714D02*
X174374009Y-68175095D01*
X174374009Y-68175095D02*
X174326390Y-68127476D01*
X174326390Y-68127476D02*
X174278771Y-68032238D01*
X174278771Y-68032238D02*
X174278771Y-67841762D01*
X174278771Y-67841762D02*
X174326390Y-67746524D01*
X174326390Y-67746524D02*
X174374009Y-67698905D01*
X174374009Y-67698905D02*
X174469247Y-67651286D01*
X136797819Y-85748905D02*
X135797819Y-85748905D01*
X135797819Y-85748905D02*
X135797819Y-85987000D01*
X135797819Y-85987000D02*
X135845438Y-86129857D01*
X135845438Y-86129857D02*
X135940676Y-86225095D01*
X135940676Y-86225095D02*
X136035914Y-86272714D01*
X136035914Y-86272714D02*
X136226390Y-86320333D01*
X136226390Y-86320333D02*
X136369247Y-86320333D01*
X136369247Y-86320333D02*
X136559723Y-86272714D01*
X136559723Y-86272714D02*
X136654961Y-86225095D01*
X136654961Y-86225095D02*
X136750200Y-86129857D01*
X136750200Y-86129857D02*
X136797819Y-85987000D01*
X136797819Y-85987000D02*
X136797819Y-85748905D01*
X135797819Y-86653667D02*
X135797819Y-87320333D01*
X135797819Y-87320333D02*
X136797819Y-86891762D01*
X174897819Y-85748905D02*
X173897819Y-85748905D01*
X173897819Y-85748905D02*
X173897819Y-85987000D01*
X173897819Y-85987000D02*
X173945438Y-86129857D01*
X173945438Y-86129857D02*
X174040676Y-86225095D01*
X174040676Y-86225095D02*
X174135914Y-86272714D01*
X174135914Y-86272714D02*
X174326390Y-86320333D01*
X174326390Y-86320333D02*
X174469247Y-86320333D01*
X174469247Y-86320333D02*
X174659723Y-86272714D01*
X174659723Y-86272714D02*
X174754961Y-86225095D01*
X174754961Y-86225095D02*
X174850200Y-86129857D01*
X174850200Y-86129857D02*
X174897819Y-85987000D01*
X174897819Y-85987000D02*
X174897819Y-85748905D01*
X174897819Y-86796524D02*
X174897819Y-86987000D01*
X174897819Y-86987000D02*
X174850200Y-87082238D01*
X174850200Y-87082238D02*
X174802580Y-87129857D01*
X174802580Y-87129857D02*
X174659723Y-87225095D01*
X174659723Y-87225095D02*
X174469247Y-87272714D01*
X174469247Y-87272714D02*
X174088295Y-87272714D01*
X174088295Y-87272714D02*
X173993057Y-87225095D01*
X173993057Y-87225095D02*
X173945438Y-87177476D01*
X173945438Y-87177476D02*
X173897819Y-87082238D01*
X173897819Y-87082238D02*
X173897819Y-86891762D01*
X173897819Y-86891762D02*
X173945438Y-86796524D01*
X173945438Y-86796524D02*
X173993057Y-86748905D01*
X173993057Y-86748905D02*
X174088295Y-86701286D01*
X174088295Y-86701286D02*
X174326390Y-86701286D01*
X174326390Y-86701286D02*
X174421628Y-86748905D01*
X174421628Y-86748905D02*
X174469247Y-86796524D01*
X174469247Y-86796524D02*
X174516866Y-86891762D01*
X174516866Y-86891762D02*
X174516866Y-87082238D01*
X174516866Y-87082238D02*
X174469247Y-87177476D01*
X174469247Y-87177476D02*
X174421628Y-87225095D01*
X174421628Y-87225095D02*
X174326390Y-87272714D01*
X174897819Y-48156905D02*
X173897819Y-48156905D01*
X173897819Y-48156905D02*
X173897819Y-48395000D01*
X173897819Y-48395000D02*
X173945438Y-48537857D01*
X173945438Y-48537857D02*
X174040676Y-48633095D01*
X174040676Y-48633095D02*
X174135914Y-48680714D01*
X174135914Y-48680714D02*
X174326390Y-48728333D01*
X174326390Y-48728333D02*
X174469247Y-48728333D01*
X174469247Y-48728333D02*
X174659723Y-48680714D01*
X174659723Y-48680714D02*
X174754961Y-48633095D01*
X174754961Y-48633095D02*
X174850200Y-48537857D01*
X174850200Y-48537857D02*
X174897819Y-48395000D01*
X174897819Y-48395000D02*
X174897819Y-48156905D01*
X173897819Y-49061667D02*
X173897819Y-49680714D01*
X173897819Y-49680714D02*
X174278771Y-49347381D01*
X174278771Y-49347381D02*
X174278771Y-49490238D01*
X174278771Y-49490238D02*
X174326390Y-49585476D01*
X174326390Y-49585476D02*
X174374009Y-49633095D01*
X174374009Y-49633095D02*
X174469247Y-49680714D01*
X174469247Y-49680714D02*
X174707342Y-49680714D01*
X174707342Y-49680714D02*
X174802580Y-49633095D01*
X174802580Y-49633095D02*
X174850200Y-49585476D01*
X174850200Y-49585476D02*
X174897819Y-49490238D01*
X174897819Y-49490238D02*
X174897819Y-49204524D01*
X174897819Y-49204524D02*
X174850200Y-49109286D01*
X174850200Y-49109286D02*
X174802580Y-49061667D01*
X155847819Y-48156905D02*
X154847819Y-48156905D01*
X154847819Y-48156905D02*
X154847819Y-48395000D01*
X154847819Y-48395000D02*
X154895438Y-48537857D01*
X154895438Y-48537857D02*
X154990676Y-48633095D01*
X154990676Y-48633095D02*
X155085914Y-48680714D01*
X155085914Y-48680714D02*
X155276390Y-48728333D01*
X155276390Y-48728333D02*
X155419247Y-48728333D01*
X155419247Y-48728333D02*
X155609723Y-48680714D01*
X155609723Y-48680714D02*
X155704961Y-48633095D01*
X155704961Y-48633095D02*
X155800200Y-48537857D01*
X155800200Y-48537857D02*
X155847819Y-48395000D01*
X155847819Y-48395000D02*
X155847819Y-48156905D01*
X154943057Y-49109286D02*
X154895438Y-49156905D01*
X154895438Y-49156905D02*
X154847819Y-49252143D01*
X154847819Y-49252143D02*
X154847819Y-49490238D01*
X154847819Y-49490238D02*
X154895438Y-49585476D01*
X154895438Y-49585476D02*
X154943057Y-49633095D01*
X154943057Y-49633095D02*
X155038295Y-49680714D01*
X155038295Y-49680714D02*
X155133533Y-49680714D01*
X155133533Y-49680714D02*
X155276390Y-49633095D01*
X155276390Y-49633095D02*
X155847819Y-49061667D01*
X155847819Y-49061667D02*
X155847819Y-49680714D01*
X136797819Y-103814714D02*
X135797819Y-103814714D01*
X135797819Y-103814714D02*
X135797819Y-104052809D01*
X135797819Y-104052809D02*
X135845438Y-104195666D01*
X135845438Y-104195666D02*
X135940676Y-104290904D01*
X135940676Y-104290904D02*
X136035914Y-104338523D01*
X136035914Y-104338523D02*
X136226390Y-104386142D01*
X136226390Y-104386142D02*
X136369247Y-104386142D01*
X136369247Y-104386142D02*
X136559723Y-104338523D01*
X136559723Y-104338523D02*
X136654961Y-104290904D01*
X136654961Y-104290904D02*
X136750200Y-104195666D01*
X136750200Y-104195666D02*
X136797819Y-104052809D01*
X136797819Y-104052809D02*
X136797819Y-103814714D01*
X136797819Y-105338523D02*
X136797819Y-104767095D01*
X136797819Y-105052809D02*
X135797819Y-105052809D01*
X135797819Y-105052809D02*
X135940676Y-104957571D01*
X135940676Y-104957571D02*
X136035914Y-104862333D01*
X136035914Y-104862333D02*
X136083533Y-104767095D01*
X135797819Y-105957571D02*
X135797819Y-106052809D01*
X135797819Y-106052809D02*
X135845438Y-106148047D01*
X135845438Y-106148047D02*
X135893057Y-106195666D01*
X135893057Y-106195666D02*
X135988295Y-106243285D01*
X135988295Y-106243285D02*
X136178771Y-106290904D01*
X136178771Y-106290904D02*
X136416866Y-106290904D01*
X136416866Y-106290904D02*
X136607342Y-106243285D01*
X136607342Y-106243285D02*
X136702580Y-106195666D01*
X136702580Y-106195666D02*
X136750200Y-106148047D01*
X136750200Y-106148047D02*
X136797819Y-106052809D01*
X136797819Y-106052809D02*
X136797819Y-105957571D01*
X136797819Y-105957571D02*
X136750200Y-105862333D01*
X136750200Y-105862333D02*
X136702580Y-105814714D01*
X136702580Y-105814714D02*
X136607342Y-105767095D01*
X136607342Y-105767095D02*
X136416866Y-105719476D01*
X136416866Y-105719476D02*
X136178771Y-105719476D01*
X136178771Y-105719476D02*
X135988295Y-105767095D01*
X135988295Y-105767095D02*
X135893057Y-105814714D01*
X135893057Y-105814714D02*
X135845438Y-105862333D01*
X135845438Y-105862333D02*
X135797819Y-105957571D01*
D11*
%TO.C,D1*%
X133643000Y-50505000D02*
X133643000Y-47845000D01*
X135343000Y-50505000D02*
X133643000Y-50505000D01*
X135343000Y-50505000D02*
X135343000Y-47845000D01*
%TO.C,D8*%
X152693000Y-88097000D02*
X152693000Y-85437000D01*
X154393000Y-88097000D02*
X152693000Y-88097000D01*
X154393000Y-88097000D02*
X154393000Y-85437000D01*
%TO.C,D4*%
X133643000Y-69047000D02*
X133643000Y-66387000D01*
X135343000Y-69047000D02*
X133643000Y-69047000D01*
X135343000Y-69047000D02*
X135343000Y-66387000D01*
%TO.C,D12*%
X171743000Y-106639000D02*
X171743000Y-103979000D01*
X173443000Y-106639000D02*
X171743000Y-106639000D01*
X173443000Y-106639000D02*
X173443000Y-103979000D01*
%TO.C,D5*%
X152693000Y-69047000D02*
X152693000Y-66387000D01*
X154393000Y-69047000D02*
X152693000Y-69047000D01*
X154393000Y-69047000D02*
X154393000Y-66387000D01*
%TO.C,D11*%
X152693000Y-106639000D02*
X152693000Y-103979000D01*
X154393000Y-106639000D02*
X152693000Y-106639000D01*
X154393000Y-106639000D02*
X154393000Y-103979000D01*
%TO.C,D6*%
X171743000Y-69047000D02*
X171743000Y-66387000D01*
X173443000Y-69047000D02*
X171743000Y-69047000D01*
X173443000Y-69047000D02*
X173443000Y-66387000D01*
%TO.C,D7*%
X133643000Y-88097000D02*
X133643000Y-85437000D01*
X135343000Y-88097000D02*
X133643000Y-88097000D01*
X135343000Y-88097000D02*
X135343000Y-85437000D01*
%TO.C,D9*%
X171743000Y-88097000D02*
X171743000Y-85437000D01*
X173443000Y-88097000D02*
X171743000Y-88097000D01*
X173443000Y-88097000D02*
X173443000Y-85437000D01*
%TO.C,D3*%
X171743000Y-50505000D02*
X171743000Y-47845000D01*
X173443000Y-50505000D02*
X171743000Y-50505000D01*
X173443000Y-50505000D02*
X173443000Y-47845000D01*
%TO.C,D2*%
X152693000Y-50505000D02*
X152693000Y-47845000D01*
X154393000Y-50505000D02*
X152693000Y-50505000D01*
X154393000Y-50505000D02*
X154393000Y-47845000D01*
%TO.C,D10*%
X133643000Y-106639000D02*
X133643000Y-103979000D01*
X135343000Y-106639000D02*
X133643000Y-106639000D01*
X135343000Y-106639000D02*
X135343000Y-103979000D01*
%TD*%
M02*
